<svg id="svg2" xmlns="http://www.w3.org/2000/svg" viewBox="0 0 1024 304.41"><path id="path2987" d="M56.22,308a4.32,4.32,0,0,1,1-1.5c1-1.06,1-1.16-.24-2.09s-1.84-4.06-1.07-6.37c.52-1.56,1.37-1.68,2.35-.35a1.47,1.47,0,0,0,1.61.62c.72-.27.9-1.27.87-4.77-.06-6-.77-7-4.86-6.57-3.27.34-4.54-.54-2.83-2,1.14-.94,2.77-4.44,2.37-5.08a7.89,7.89,0,0,0-2.82-1.26c-1.38-.41-3.11-1-3.85-1.27-2.91-1.13-5.51-.09-5.17,2.09.18,1.17,2.67,3.32,3.36,2.9.39-.25.55-.19.36.12a1.51,1.51,0,0,0,.17,1.38,1.39,1.39,0,0,1-.15,1.63,1.33,1.33,0,0,0,0,1.81c.93,1.48-1,2.48-5.45,2.83-2.79.23-3.85.09-4.54-.6-1.49-1.49-5-3.45-5.51-3.11-.28.18-.41.92-.29,1.65.17,1-.33,1.7-2.12,2.93C28.09,291.86,27,293,27,293.6c0,2.33-3.43,4.8-5.14,3.72-.61-.38-.41-.93.93-2.46,1.46-1.7,1.73-2.53,1.84-5.77.1-2.52.46-4.15,1.09-4.85a5.47,5.47,0,0,0,1.37-4.05c0-.57.18-1,.4-1a9.69,9.69,0,0,0,2.35-1.83c2.13-2,1.79-2.81-1.2-2.83-1.12,0-1.49-.25-1.27-.82.37-1-.7-1.8-1.22-.94s-1.47.78-1.47.06c0-.29.95-1.08,2.1-1.76,3.42-2,7.76-5.94,7.46-6.73a4.11,4.11,0,0,0-1.66-1.48c-.8-.42-1.25-1.08-1.08-1.55s0-.69-.58-.46A2.39,2.39,0,0,0,29.73,262c-.43,1.14-4.13,2.58-6.38,2.5a7.45,7.45,0,0,0-3.11.57,6.66,6.66,0,0,1-4.92-.2c-.23-.14-.18-1.3.1-2.58.66-2.91.44-4.42-.87-5.94s-.89-2,.73-1.13a6.14,6.14,0,0,0,2.47.63c1.37,0,8.39-3.11,8.91-3.94.41-.67-.28-1.61-1.52-2.07-.65-.23-1-1-1-2,0-2.13,1.3-3.93,2.5-3.47s2.42-1,2-2.2c-.24-.61-1.17-.88-3-.88H22.89l.17-3.06c.16-2.76.33-3.09,1.63-3.27a3.72,3.72,0,0,0,2.22-1.31,3.1,3.1,0,0,1,2.4-1.11c2.2,0,2.51-.48,1.16-1.82-.63-.63-1-1.4-.79-1.72s-.54-.95-1.64-1.41a4.84,4.84,0,0,1-2.93-3.34c-1.58-4.24-1.73-5.45-.76-6.26s4.1-.58,6.33.27c1.72.66,1.22-1.41-.79-3.29a7.25,7.25,0,0,0-2.37-1.69c-.3,0-.39-.27-.19-.59s0-.58-.36-.58-.57-.14-.4-.32,1.28.26,2.45,1c2.16,1.27,6.45,1.67,7.43.7.53-.53-1.53-4.86-2.63-5.52-2.85-1.72-2.91-1.89-1.3-3.81s1.88-3.07.84-4.11c-.51-.51-.51-.88,0-1.49.83-1-.55-2.39-3-3a2.45,2.45,0,0,1-2-1.83,1.6,1.6,0,0,0-1.81-1.45c-1.91,0-1.49-1.2.83-2.38s1.81-2-2.06-3.36-5.35-2.69-5.08-4.84a3,3,0,0,0-1-2.8c-1.17-1.09-1.17-1.1.48-1.44,1.84-.39,5.38-.79,11.71-1.33,3-.26,4.47-.15,5.12.4s1.5.61,4.16,0c3.67-.88,4.51-2,2.59-3.45-1.16-.87-1.2-1.06-.39-1.73,1.25-1.05,1-3.52-.64-5.5A5.93,5.93,0,0,1,41,163.31a2.45,2.45,0,0,0-1-1.56c-2.68-1.93-1.12-2.62,2.51-1.12,3.43,1.43,4.81,1.46,5.23.12s-.06-3.56-.74-3.56c-.35,0-.42-2-.18-4.5.1-1.07,1.66-.25,2,1,.21.8.81,1.13,2,1.13a10,10,0,0,1,2.83.4c.92.34,1,.27.31-.54s-.58-1,.43-1.31c.66-.21,1.2-.64,1.2-.95a5.37,5.37,0,0,1,1.61-2.05c1.07-1,1.36-1.57.88-1.77s-.52-.51.14-1.17A4.22,4.22,0,0,0,59.2,145c.11-2.54.17-2.69,1.53-4.16a8.5,8.5,0,0,0,1.64-2.44c.18-.57.67-.9,1.1-.74a.89.89,0,0,0,1.11-.61c.23-.58,1.08-.91,2.34-.91,1.65,0,2.11-.29,2.7-1.71a4.15,4.15,0,0,1,1.53-2,1.72,1.72,0,0,0,.82-1.56,5.54,5.54,0,0,1,1.16-2.71c.64-.81,1-1.67.9-1.9s.37-.31,1.15-.16a2.78,2.78,0,0,0,2.36-.67,3.29,3.29,0,0,1,2-.94c1.15,0,2.38-2.25,2.38-4.36,0-1.78,1-2.1,3.43-1.11,1.08.44,2,.8,2.09.8a20,20,0,0,0,3.82-3.71c0-.22-.65-.23-1.46,0-1,.26-1.46.13-1.46-.43s-.13-.6-.56.07-.6.71-.94-.17c-.21-.57-.24-1.19,0-1.38s.1-.8-.21-1.37c-.44-.83-.26-1.1.92-1.4.81-.2,1.32-.62,1.13-.93s.17-.57.81-.57c1.3,0,2.25-1.09,1.46-1.67s-.85-1.83,0-1.83c1.39,0,5-3.59,5.65-5.67a7.36,7.36,0,0,0,.32-3.31c-.26-1,.08-1.63,1.4-2.61A3.67,3.67,0,0,0,100,92.1c0-1,.32-1.44,1.07-1.44a3.39,3.39,0,0,0,2.08-1.11,6.22,6.22,0,0,1,3-1.47,2.79,2.79,0,0,0,2.56-2.1c.33-1,.88-1.74,1.22-1.74s1-1,1.55-2.33c.91-2.27,1-2.34,3.73-2.34,2.27,0,3.13-.31,4.57-1.66a15.8,15.8,0,0,1,5-2.68,11.72,11.72,0,0,0,3.57-1.55,3.11,3.11,0,0,1,2.06-.53,2.21,2.21,0,0,0,2.39-1.46c.37-.8,1-1.46,1.31-1.46s1-.52,1.37-1.16A2.38,2.38,0,0,1,137,67.9c1,0,1.56-1.93.88-3s-.68-2.41-.09-2.06a3,3,0,0,0,1.76-.24c1.53-.58,1.89-3.45.43-3.45-1,0-1.2-1.49-.31-2a1,1,0,0,0,.23-1.2c-.19-.47,0-.86.35-.86s.49-.3.26-.67-.16-.52.15-.33c.66.41,4.87-3.17,4.87-4.14,0-.59-2.73-2.37-3.5-2.29s-4.67-1.61-4.67-2c0-.25.72-.36,1.6-.25s1.28.09.88-.06a1.17,1.17,0,0,1-.73-1c0-1,1.84-1.69,2.35-.87a5.06,5.06,0,0,0,2.73,1c2.86.39,5.3-1.19,4.09-2.64-.61-.74-.31-.79,2.21-.37,6.08,1,11.35-.44,11.4-3.12,0-.85.13-.83.87.15.47.63.86.9.86.62s.38,0,.84.62A3.3,3.3,0,0,1,165,42a1.49,1.49,0,0,0,.85,1.88,10.53,10.53,0,0,0,6.59,0,2.22,2.22,0,0,1,2.2.41c1.52,1.07,6.28,1.64,6.79.81.2-.32.07-.58-.29-.58-1.46,0-4.42-2.64-4.2-3.74a1.59,1.59,0,0,0-.7-1.63c-1.23-.69-1.19-1.46.13-2.17.72-.38,2-.31,3.94.22,1.58.44,2.48.84,2,.89s-.62.2-.18.38c.83.34,4.27-1.35,4.27-2.1,0-.29.72-.38,1.6-.19s2.4.4,3.36.48,1.92.17,2.13.21.53.71.73,1.5c.44,1.76,1.66,2.46,4.73,2.73l2.33.21V39a4.71,4.71,0,0,0-.55-2.73c-.35-.25-.34-.89.06-1.75a2.26,2.26,0,0,0,0-2.36c-1.11-1.74.2-2.16,4.18-1.32a16,16,0,0,1,4.48,1.44c1.42,1.18,8.47-.58,8.47-2.1,0-.48-.78-1.31-1.74-1.86s-1.75-1.2-1.75-1.46-.25-.32-.55-.14a.73.73,0,0,1-1-.34c-.29-.47,0-.59,1.1-.39.84.16,1.6.11,1.7-.12.28-.71,4.54-1.28,4.54-.61,0,.89,2.2,2.95,3.14,2.95.44,0,1,.52,1.11,1.16a1.54,1.54,0,0,0,1.3,1.17c.67,0,.88.3.64.92a5.26,5.26,0,0,0-.36,1.46c0,.3-.54.54-1.2.54-1.8,0-3.18,1.56-2.31,2.61a1.43,1.43,0,0,0,1.41.54,3.84,3.84,0,0,1,2.31.55c1.47.76,1.5.84.4,1.13-1.77.46-1.44,2,.71,3.34s3.61,1.51,3.14.29c-.26-.67.13-.88,1.69-.88,1.37,0,2-.27,2-.83,0-1.48,2.89-3.28,4.59-2.85s4.74,3.18,4.74,4.24c0,.39,1.1.63,2.78.6,1.52,0,6,0,9.9,0,6.21.07,13.59-.75,13.59-1.51a6,6,0,0,0-1.17-1.42,4,4,0,0,1-1.17-1.75c0-.88,1.91-.7,3.36.32,1.21.85,1.38.79,3-1a9.67,9.67,0,0,0,1.76-2.36c0-.24.3-.44.64-.44s.47.25.28.54a.72.72,0,0,0,.32.95c.47.29.43.55-.14.91-1.35.86,1.47.61,3.71-.32,3.12-1.3,3.7-2.32,2-3.45s-1.81-3.16-.27-3.07A4,4,0,0,1,284.27,31c.62.71,1.28,1.15,1.47,1s.93.07,1.64.57l1.31.91-1.6.61a10,10,0,0,1-2.14.61c-.3,0-.54.62-.54,1.39,0,1.19.35,1.44,2.48,1.75a12.15,12.15,0,0,0,4.05-.08c1.79-.5,7.14-5.41,8.72-8,1-1.71,1-1.75-.24-2.46s-1.27-.72.38-.74c2,0,6.95-4.52,8-7.28,1.72-4.56,2.54-5.6,4.93-6.22,3.17-.83,5.54-1.88,5.54-2.47,0-1.33,5.13-4.78,8.17-5.49,3.52-.82,4.67-.73,4.68.38,0,.61.16.69.44.25S333.64,5,336,5c3.11,0,4.27.22,5.17,1.06a3.25,3.25,0,0,0,3.13.75,19.83,19.83,0,0,1,5.44.36c3.35.66,3.59.62,7.43-1.2a17.8,17.8,0,0,1,7.83-2c3-.12,3.85,0,3.85.66,0,.45-.26.65-.57.46s-.44.18-.21,1a12.38,12.38,0,0,1,.39,2.43c0,1.58,2.83,1.35,3.49-.29.29-.73.54-1,.56-.67s1.46.8,3.2,1a13,13,0,0,1,4.66,1.31c1.6,1.05,3,4.87,2.48,6.81a1.22,1.22,0,0,0,2.08,1.16c.45-.45,1-.46,1.8,0s3.07.47,6.76.17c3.09-.25,8.39-.44,11.78-.43l6.16,0,4.45,2.7c3.57,2.16,5,2.69,7.11,2.69,1.82,0,2.62-.23,2.52-.73-.19-.93,1.88-.61,3.11.49.54.49,2.17.83,4,.83,3.36,0,8.37,1.07,8,1.7s7.94.61,10.47-.05c3.63-.95,10.62-4.45,11.79-5.9a19.8,19.8,0,0,1,2.74-2.62c1.57-1.22,1.73-1.24,2.42-.3s.5,1.15-1,2a3.18,3.18,0,0,0-1.79,3.43c0,.35-10.92,5.93-13,6.63a55.28,55.28,0,0,1-7.58.69,50.48,50.48,0,0,0-6.67.56c-.76.75,1.47,1.59,4.3,1.62,2.12,0,3,.23,2.65.61a1.92,1.92,0,0,0-.58,1c0,.74,3.17,1.48,4.91,1.15l1.69-.33-1.4-.7a17,17,0,0,0-2.57-1c-.64-.16.14-.16,1.75,0a30.39,30.39,0,0,1,4.9.93c2.37.75,9.92.15,10.94-.87a2.93,2.93,0,0,1,1.62-.42,4.8,4.8,0,0,0,2.35-.88,4.26,4.26,0,0,1,2-.86,7.4,7.4,0,0,0,2.54-.85c1.4-.73,1.68-.74,1.95,0,.38,1-1.44,3.64-2.82,4.11a16.53,16.53,0,0,1-3.34.43c-1.29.05-2.05.27-1.69.49a1.16,1.16,0,0,1,.29,1.34c-.28.73-1.22.93-4.25.93-2.77,0-4.41.32-5.71,1.1a23.24,23.24,0,0,1-4,1.81c-2,.64-2.2.88-2,2.49.27,2.66,1.51,3.15,5.77,2.28a19.77,19.77,0,0,0,5-1.66,5.2,5.2,0,0,1,3.69-.6,14.73,14.73,0,0,0,4.37-.16c3.42-.77,2.86.35-.73,1.46a24.74,24.74,0,0,0-3.93,1.47A26.21,26.21,0,0,1,461.24,46c-5.1,1.38-5.61,2-1.59,2,6.06,0,22.13-5,24.44-7.66a3.47,3.47,0,0,1,2.22-1.1c1.79,0,10.53-5.18,10.53-6.24,0-.58.33-.76.94-.52a9.25,9.25,0,0,0,3.94-.58c4-1.27,6.61-.61,8.13,2.11a18.32,18.32,0,0,0,2.37,3.26,24.09,24.09,0,0,1,2.3,2.78c1.74,2.54,4.6,3.35,11.79,3.34a59.36,59.36,0,0,1,12.11,1.19c6,1.26,8,1.19,13.28-.45a30.32,30.32,0,0,1,14-.51,25,25,0,0,0,5.93.4c3.78-.56,7.44-.19,7.28.74-.06.34-.89,1-1.86,1.58s-1.62,1.07-1.46,1.21c.41.34-1.53,2.2-2.29,2.2a.59.59,0,0,0-.62.56c0,.84-2.18,1.85-4.11,1.9-.93,0-1.57.24-1.43.47.49.79-8.16.5-11.21-.38A21.84,21.84,0,0,1,550.73,50c-2.06-1.4-2.48-1.47-6.89-1.08a57.65,57.65,0,0,0-7.63,1.16c-4.14,1.08-10.27,1.05-13.55,0-3.8-1.28-8.62-4.3-9.68-6.06a42,42,0,0,0-8.12-8.35c-2.41-1.52-4.3-.71-8.89,3.81-3.2,3.14-3.9,4.12-3.24,4.53s.4.75-1.16,1.58c-2.86,1.51-6,4.68-5.48,5.52.3.48.12.57-.61.3-2.28-.88-3.53,2.15-1.67,4a4.1,4.1,0,0,1,1.06,2.23,11.61,11.61,0,0,0,.52,2.57c.33,1,.21,1.31-.48,1.31-.5,0-.91-.31-.91-.68s-.19-.5-.42-.27.37,1,1.32,1.81c1.55,1.26,1.65,1.52,1,2.66-.88,1.45-1,1.28,1.56,2.58,1.95,1,4,.84,3.3-.26-.24-.39.17-.38,1.2,0,1.53.58,4.95-.12,6.36-1.3a5.07,5.07,0,0,1,2.44-.47,11.39,11.39,0,0,0,3.53-.65c1.79-.72,6.68-.72,7.17,0a10,10,0,0,0,3.11,1.22c2.26.62,3.06.63,4.18,0a2,2,0,0,1,2.73.21,6.22,6.22,0,0,0,3,.95c1.49,0,1.6.11.9,1s-.54.92,1.69.71c1.88-.18,2.41,0,2.19.53a.88.88,0,0,0,.57,1.1,1.37,1.37,0,0,1,.87,1.15c0,.84,2.17,1.07,4.45.46,1.17-.32,1.19-.43.38-2.07-.9-1.79-.52-3.18.44-1.65.3.47.55.62.55.33s.5,0,1.1.73c1.47,1.7,3.2,1.58,6.82-.46,8.16-4.6,21.27-5.84,21.27-2,0,.46.61.8,1.46.8s1.46-.34,1.46-.81c0-1,1.59-1.72,1.86-.91.1.3.84.55,1.64.56,8.33.1,12.29-.18,17-1.16,8.43-1.78,19.77-1.28,22.28,1,.85.77,2.23.91,7.59.77,3.61-.09,7.74-.19,9.19-.21A46.56,46.56,0,0,1,639.24,69c.48.19,9.14.38,19.25.42,19.44.08,37.06.57,37.85,1.06a69.57,69.57,0,0,0,8.6.24c4.47,0,22.17-.1,39.34-.17,33.63-.12,37.1-.17,36.71-.56-.14-.14-5.11-.67-11-1.18l-13.12-1.15c-1.28-.12-8.64-.29-16.34-.37s-14.79-.31-15.76-.51c-1.71-.37-1.68-.39,1-1.08a28.8,28.8,0,0,1,5.84-.72,65.9,65.9,0,0,0,8.35-.88c5.35-.89,14.66-.82,32.68.22a278.38,278.38,0,0,0,28.89-.18c5.55-.32,11.57-.55,31.22-1.19,14.76-.48,35.43-1.41,40.27-1.81,4.15-.35,4.63.13,1.27,1.27-1.18.41-1.92,1.09-2,1.88-.15,1-.71,1.3-3.65,1.63-1.9.21-3.46.59-3.46.84s-1.38.65-3.06.89-2.67.56-2.19.71a5.06,5.06,0,0,1,1.86,1.52c.92,1.15,1.46,1.23,7.3,1.07,3.47-.09,9.59-.35,13.6-.58a92.62,92.62,0,0,1,11.67,0,27.21,27.21,0,0,0,7-.11c1.45-.32,5-1,7.88-1.46l9.05-1.55a37,37,0,0,1,5-.6c2.09.09,6.91-1.25,11.65-3.24s6.5-2.41,5.9-1.45a8.28,8.28,0,0,1-2.34,1.48c-3.45,1.63-2.16,2.53,3.79,2.63s7.18.41,6.7,1.65c-.22.59-.05.76.55.52,1.09-.41,1.18.56.11,1.21-.73.44-2.9,4.29-2.58,4.59a28.35,28.35,0,0,0,3.4.54l3.26.4,2.46-2.93a12.26,12.26,0,0,1,4.43-3.59,7.19,7.19,0,0,0,2.72-1.56c.63-.76.57-1-.36-1.72-1.83-1.34,0-2.25,4.23-2,.72,0,1.31.42,1.31.87,0,1,2.52,2.69,4.15,2.69,1.21,0,1.23,0,.29-1.09s-.89-1.13.94-2A20.27,20.27,0,0,1,978,62.38c1.62-.29,2-.56,1.48-.91s-.43-.65.83-1.13c1.09-.42,1.53-.92,1.31-1.49-.39-1-.31-1,1.49-.36s4-.16,4-1.35c0-.91,2.82-2.66,4.27-2.66a5.09,5.09,0,0,0,2.22-1.08,9.51,9.51,0,0,1,3-1.47c.88-.22,1.6-.65,1.6-1s.66-.57,1.46-.57,1.46.2,1.46.45c0,.52-3.13,2.2-5.18,2.79-2.4.68-.11,1.44,3.19,1a8.13,8.13,0,0,1,4.33.38c1.35.73,1.35.73.17,1.68-1.73,1.38-2.08,3.45-.71,4.18a2,2,0,0,1,1.12,1.46c0,1-2.5,1.12-6.28.17-2-.52-2.76-.52-2.93,0A12.07,12.07,0,0,1,993,65a4.18,4.18,0,0,1-3.75,1.76c-1.38,0-2.15.26-2.06.68s-.46,1-1.2,1.39l-1.34.69,1.44,1.71c3.51,4.18,1.39,5.41-4.35,2.51a61.55,61.55,0,0,1-8.7-5.22c-.35-.36-1.45-.66-3.73-1-1.57-.26-1.66-.17-1.31,1.23.27,1.09.1,1.66-.65,2.1-.92.53-.89.6.29.61,1.77,0,1.67,1-.15,1.43-1.13.28-1.46.74-1.46,2,0,1.54-.22,1.73-2.48,2.08-3.89.6-4.56.9-4.39,2,.14.82-.44,1-3.68,1s-4.06.29-5.39,1.62c-1.87,1.87-3,3.81-2.44,4.34s4,.64,17.8.94c5.62.13,10.95.51,11.86.86a10.23,10.23,0,0,0,2.18.63c1.41,0,.33,1.07-1.35,1.34-1,.16-2.94.56-4.23.87s-8.35.74-15.7.94c-11.74.32-13.45.49-14.1,1.38-.41.55-.67,1.08-.58,1.17.35.35,3.06.79,6.11,1,3.66.27,5.36,1.45,4.16,2.89-.55.66-.56.9-.06.9s.53.26.33.58a2.88,2.88,0,0,1-2,.59c-1.39,0-1.66.23-1.56,1.31.24,2.64,1.1,3.27,4.93,3.59a21.22,21.22,0,0,1,4.13.59c.44.27,5,.36,12.92.26,1.77,0,4,0,5,.09a42.23,42.23,0,0,0,4.67-.07c1.66-.12,2.93,0,2.93.37a3.28,3.28,0,0,0,.47,1.3c.56.88-.34.94-3,.19-1-.3-1.85-.36-1.82-.15.26,1.94-.28,3-1.94,3.65-1,.42-1.57.86-1.22,1s.45.85,0,2.34c-.49,1.79-.42,2.24.46,2.89s.89.76-.67.76a17.42,17.42,0,0,0-3.85.6c-3.62,1-7,1.1-7.31.2-.18-.46-1.1-.78-2.15-.76-1.62,0-1.68.09-.58.54a4,4,0,0,1,1.61,1.08c.49.78-.21,2.42-1,2.43-.56,0-2.39,3-2,3.19.08,0,.78.35,1.57.68,1.29.54,1.18.6-1.17.67-4.9.16-9.23.81-10.25,1.56-.71.52-1,1.59-1.06,3.59,0,2.15-.31,3-1.14,3.5-1.6.94-.6,1.28,5,1.72,3.44.27,5.12.19,5.4-.26.5-.8,3-.86,3.54-.07s2.93.27,2.84-.8c-.05-.6.37-1,1.17-1a4.72,4.72,0,0,0,2.09-.55c.68-.43.53-.68-.73-1.25-.87-.39-1.58-1.05-1.58-1.47,0-.57,1-.66,4.24-.4,2.32.19,4.38.58,4.57.87a4.64,4.64,0,0,0,2,1c1.11.3,1.71.84,1.73,1.58a8.18,8.18,0,0,0,.81,2.71c.92,1.84.11,3.37-1.78,3.37a1,1,0,0,0-1.1.88c0,.48.26.87.58.87,1,0,.65,3.27-.43,4.23a11.28,11.28,0,0,1-3.59,1.6c-4.32,1.15-7.3,3.66-7.9,6.66l-.34,1.7-13.57-.35c-11-.28-13.83-.19-15,.48-.91.51-3.27.82-6.29.83-4.6,0-4.85.09-5.38,1.48-.31.81-.94,1.46-1.41,1.46-1.36,0-1.78,1.28-.69,2.08a7,7,0,0,0,4,.48c2.34-.19,3.11,0,3.71.79s1.74,1,6.55,1.11c6.46.09,10.06,1.23,10.06,3.2,0,1.06-.84,1.39-3.1,1.19-.58,0-.91.15-.72.45.32.52-.7.72-7.75,1.5a27.7,27.7,0,0,0-5.84,1.42L928.41,174l2.34.37A120.2,120.2,0,0,1,944.13,177c2,.77,1.89,1.57-.27,1.42-6.9-.48-25.77-.87-26.77-.55a3.75,3.75,0,0,0-1.86,1.57c-.5.93-.41,1.33.44,2s.3.82-5.06.92c-3.37.06-6.52,0-7,0s-4.84-.14-9.69-.16c-6.25,0-9.9.25-12.55.92-5.14,1.29-9.63,3.06-9.28,3.66.16.27-.37.57-1.19.67a3.51,3.51,0,0,0-2.25,1.4l-.77,1.24,6-.4a82.61,82.61,0,0,0,11-1.54c9.56-2.23,11.68-2.53,13-1.81s8.62.65,8.19-.05,5.8-.78,12.91-.07c3.86.38,7.79.68,8.76.68,1.73,0,1.72,0-.59-1.05a5.79,5.79,0,0,0-2.86-.74c-.29.17-.36,0-.15-.3.34-.56,2.11-.85,10.46-1.71,3.83-.39,7.12.59,6.59,2a5.6,5.6,0,0,0-.32,1.67.84.84,0,0,1-.84.83c-1.66,0-1.54,1.21.28,2.74s1.85,1.56.53,2.05a16.54,16.54,0,0,1-4.61.39,20,20,0,0,0-5.48.62c-1.85.61-2.12.91-1.8,2a11.43,11.43,0,0,0,.5,1.4,41.35,41.35,0,0,0,4.1.69,14.46,14.46,0,0,1,4.6,1.19c.79.78.35.82-9.55.87-7.07,0-8,.15-9.1,1.2-1.82,1.77-2.18,3.21-.79,3.21.63,0,1.15.31,1.15.68s-.16.52-.36.33c-.36-.37-1.2.2-3.17,2.16-.64.63-1.14.83-1.14.44a.66.66,0,0,0-.62-.69c-.34,0-.45.26-.26.58s.09.58-.25.58-.49-.78-.3-2,0-2.15-.35-2.4c-.87-.54-3.47.86-3.47,1.87,0,.42-.56.77-1.23.77-.83,0-1.13.28-.91.84s-.33,1.06-1.73,1.52c-2.14.71-3.78,3.07-2.8,4.05.3.3,3.37.72,6.82.95s6.27.58,6.27.8.78.28,1.74.14a14.72,14.72,0,0,1,3.93.15c2,.38,2.1.46,1,1.09-.67.37-1.1,1-1,1.41s-.44.73-1.94.73c-4.44,0-1,1,4,1.1,2.13.06,3.22,1.23,1.15,1.23a3.44,3.44,0,0,0-2.07,1.21c-.91,1.06-1.49,1.17-4.66.89-2-.18-6.7-.48-10.47-.68-6-.32-6.86-.25-6.86.55,0,1.88-2.11,2.24-6.11,1-3.2-1-3.87-1-4.44-.32s-2,.81-4.64.81c-5.59,0-6.48.47-3.46,1.83a12.45,12.45,0,0,0,3.79,1.09c.74,0,1.43.23,1.54.5.23.61,6.32,1.25,6.32.67,0-.23,1.62-.46,3.59-.52a21.4,21.4,0,0,0,4-.34,1.32,1.32,0,0,1,1.12.22c.43.27-.69.61-2.74.83-3.78.39-6.67,1.43-6.18,2.23.17.27-.12.5-.63.5s-.8.23-.63.51-.59.7-1.71.91-2,.72-2,1.23c0,.68-1.08.85-5.51.85-3.09,0-5.67.26-5.88.59s-3.19.45-8.35.21l-8-.37-6.42,2.47c-3.53,1.36-8.86,3.27-11.84,4.26-7.46,2.46-6.44,3.14,3.5,2.33,6.05-.49,17.76-.61,19.72-.2.16,0-.09.3-.56.6-1,.64-6.18,1.07-17.53,1.46-13.4.45-16.93,1-16.93,2.61,0,1.2-2.13,1.43-19.77,2.08-10.9.41-22.11,1.32-28.84,2.33-3.15.48-5.91.82-6.13.77-.42-.09-8.31.59-11.5,1-2.17.28-21.88.45-39.68.35-7.39,0-14.08,0-14.88.2-7.71,1.46-39.32,2.72-46.69,1.86-1.13-.13-3.23-.39-4.67-.58-4-.53-23.42-1.21-30.93-1.09a93,93,0,0,0-10.59.75c-7.39,1.21-49.87.53-56.32-.91-1.74-.39-10.83,1.13-12.17,2a25.35,25.35,0,0,1-5.55.48c-2.72.05-6.44.24-8.26.44-3,.32-3.33.24-3.68-.86-.47-1.48-2.74-1.62-5.24-.32-1.79.94-5.81.63-13.61-1-2.41-.51-3.38-.49-4.5.11-1.57.85-1.43,1.55.48,2.4.87.38-.43.48-4.17.32s-5.65,0-6.14.48-9.13,1.63-12.65,1.56a129.24,129.24,0,0,1-17.68-2.09,27,27,0,0,0-5.4-.91c-1.57,0-5.75,1.68-8.41,3.38-.15.1.06.72.47,1.37,1,1.63.59,1.88-2.51,1.41-1.74-.26-2.66-.68-2.66-1.23s-.68-.84-2.24-.84a10.86,10.86,0,0,1-4-.9c-1.93-1-7-.86-7.64.15a6.24,6.24,0,0,1-3,.91c-1.44.19-3.28.48-4.08.67-4.44,1-8.44.46-14.22-1.92l-5.75-2.36-3,1.21c-1.65.66-4.19,1.64-5.63,2.17a32.61,32.61,0,0,0-3.21,1.32,22.25,22.25,0,0,1-2.77,1c-2.3.74-2.91,1.72-1.17,1.87l1.8.15a2.49,2.49,0,0,1,1.46.93c.46.59,1.7.87,3.78.85a8.42,8.42,0,0,1,3.36.38c1.13,1.83-15.09,1.12-26.33-1.15-4.8-1-10.6-1.91-12.88-2.09-5.22-.41-10.28-1.35-10.7-2-1.31-2-8-2.71-9.84-1a5.8,5.8,0,0,1-3.62,1,18.81,18.81,0,0,0-4.33.54c-3.44,1-7.7,1.54-9.7,1.15-4-.78-10.87-1.06-11.46-.46-1,1-3.78,0-3.41-1.18.54-1.69-2.3-2.24-7-1.37-2.25.42-4.18,1-4.28,1.34s-.67.57-1.24.57a5.24,5.24,0,0,0-2.48,1.13c-1.27,1-1.89,1.08-5.13.62s-4-.36-6,.66c-2.45,1.25-2.54,1.25-7.15-.51-4.94-1.89-6.52-2-9.52-.73a14.78,14.78,0,0,1-5.06,1.12c-2.13,0-5-.06-11.81-.08-3.74,0-5,.53-6.41,2.78-1.55,2.45-1.23,2.69,3.65,2.81,1.76,0,3.19.27,3.19.51a.46.46,0,0,1-.43.46c-.8,0-5.08.59-7,.9-1.1.18-1.89.65-1.89,1.13,0,1.28-4.25,2.13-10.14,2-13.81-.25-42.91.5-45,1.16a37.82,37.82,0,0,1-5.26.94,14.32,14.32,0,0,0-4.15.91,15,15,0,0,1-4.74.66L169,280l1.39,1.29a4.66,4.66,0,0,1,1.38,1.79c0,1.28-4.93,2-15.08,2.31-10,.26-10.68.36-10.42,1.34.19.76-.16,1.18-1.27,1.51-2.28.67-2.39.64-3.17-.94-.66-1.32-1.13-1.48-4.69-1.64-3.75-.16-4.12-.06-6.89,1.93s-5.64,2.57-5.3.95c.09-.42-.37-.9-1-1.07s-1.18-.54-1.18-.83c0-.62-4.7-.62-10.22,0-2.24.26-4.34.27-4.66,0-.79-.6-11,.07-10.39.68a8.94,8.94,0,0,0,2.81,1c2.13.5,2.18.55.57.62-4,.15-5.76,1.43-2.9,2.14,1.88.48,3,2.31,1.68,2.81-1.68.64-3.74.38-3.74-.49s-2-1.77-2.91-1.21c-1.22.76-.62,3,1,3.75,1.42.65,1.48.79.57,1.3-.56.31-.86.83-.66,1.15.67,1.08-1.05,2.27-3.29,2.27-1.61,0-2.47.34-3.1,1.24-.74,1.06-1,1.13-1.67.44a6.4,6.4,0,0,1-1.19-1.83c-.52-1.38-4-1.57-5.54-.3-.93.77-8.67.19-9.78-.73s-2.88.08-3.78,1.78a2.11,2.11,0,0,1-1.48,1.15c-.47,0-.85.52-.85,1.16s-.52,1.28-1.46,1.52-1.46.7-1.46,1.12-.83,1-1.84,1.39c-2.15.76-2.24.77-2.24.25Zm10.24-9.8c.82-.62.9-.86.3-.88-1.29,0,1.18-1.72,2.54-1.75,1.73,0,.89-.4-1.86-.82-2.45-.37-2.49-.35-2.37,1.25a4.93,4.93,0,0,1-.31,2.34C64.16,299.27,65.09,299.19,66.46,298.15Zm13,.49c.73-.19,1.32-.67,1.32-1.07,0-.85-2.33-2-3.36-1.64a1.07,1.07,0,0,0-.73.87,2.46,2.46,0,0,1-1,1.39c-.92.7-.85.78.73.79A14,14,0,0,0,79.41,298.64Zm1-4.26c.2-.33,1.06-.33,2.22,0s1.94.54,2,.54c.59,0,1.91-3.81,1.59-4.57a13.1,13.1,0,0,1-.48-3.45c-.05-1.92-.29-2.48-1.06-2.48a7.42,7.42,0,0,1-2.46-.67c-2.1-1-5.82.8-5.28,2.5.28.87.06,1.25-.85,1.49q-2.37.61.09,1.81l1.32.64-1.33.4c-1,.3-1.25.67-1,1.63a10.53,10.53,0,0,0,.45,1.3c1.57,1.28,4.17,1.75,4.72.86Zm-37-8.15c2-1.46,2.29-3.13.49-2.88-.85.12-1.31-.08-1.23-.53.18-.88-3.16-2.69-3.61-2a1.94,1.94,0,0,0,0,1.46c.2.52.06.93-.32.93s-.52.26-.32.58.08.59-.25.59c-.76,0-.56,2.46.25,3.07s3.21,0,5-1.26Zm22.76-5c1.44-.83,1.42-.84-1-.86-1.95,0-2.39.16-2.12.86C63.42,282.29,64.25,282.29,66.14,281.21Zm-27.79-3c.67-1.72.41-2.56-.66-2.16-2,.74-2.63,3.08-.8,3.08A1.64,1.64,0,0,0,38.35,278.24Zm-3.73-1.7c0-.48-.26-.88-.58-.88s-.58.4-.58.88.26.87.58.87S34.62,277,34.62,276.54Zm192-5.49c5-.09,5.59-.32,6.16-2.63.27-1.05.21-1.55-.14-1.33a84.42,84.42,0,0,1-9.57,1c-5,.33-9.39.7-9.87.81s-1.86.41-3.05.65a6.16,6.16,0,0,0-2.82,1.24c-.55.66.63.76,7.13.59C218.75,271.22,224.22,271.1,226.63,271.05Zm15.54,0s.41-.85.82-1.84c.62-1.49.61-1.89-.05-2.3a1.48,1.48,0,0,0-1.4-.11,9.13,9.13,0,0,1-2.94.4c-2,0-2.37.23-2.53,1.34a1.46,1.46,0,0,0,.73,1.66c.5.2.76.6.57.91s3.94.36,4.8-.06ZM51.29,263.72a3.82,3.82,0,0,1,4.8,0c1.68,1.17,5,.89,5.26-.44.11-.56-.46-1.41-1.3-2-1.67-1.1-5.58-1.67-5.58-.82a.57.57,0,0,1-.57.55c-.31,0-.41-.4-.22-.9s.12-.85-.16-.8c-2.38.43-3.13-1.58-.94-2.51l1.59-.68L52.65,256c-1.58-.22-3.27-2.5-2.62-3.55.2-.34,1.54-.49,3-.34,2.73.26,5.15-.55,4.79-1.62-.11-.34-1.5-.69-3.1-.78a35.69,35.69,0,0,1-4.65-.56c-2-.45-3.67.68-5,3.44a5.19,5.19,0,0,1-1.7,2.09c-.48.23-1.47.71-2.18,1.08a7.58,7.58,0,0,1-2.92.68,7.39,7.39,0,0,0-3.37,1.16c-1,.64-1.45,1.16-1.09,1.16a7.08,7.08,0,0,1,2.49,1.87c1.49,1.53,2.7,2,6.63,2.86,6.15,1.27,7,1.3,8.35.26Zm283.42-2c.36-.36,0-1.1-1.08-2.09-1.8-1.66-2.28-1.83-2.83-.94-.2.32-1.51.58-2.92.58-3.12,0-3.88,1-2,2.5,1.16.94,2,1.08,4.83.83a10.87,10.87,0,0,0,4-.88Zm4-1.21c0-.28.85-.69,1.9-.9,1.81-.38,1.84-.43.76-1.24-1.73-1.3-3.41-1.11-2.95.32.26.81.1,1.17-.51,1.17a1.58,1.58,0,0,0-1.24.58c-.2.32.18.58.84.58S338.68,260.84,338.68,260.56Zm88.28-.44c.88-.17,1.47-.52,1.31-.78s.63-.65,1.75-.86,2-.6,2-.87c0-.95-2.62-1.15-3.93-.3-.73.48-1.33.74-1.33.58s-.72,0-1.6.3l-1.61.6,1.61-1.41a5.37,5.37,0,0,0,1.6-1.92c0-.67-2.85-1.93-4.37-1.94a19.18,19.18,0,0,1-3-.36c-1.32-.27-2.62.05-4.77,1.14-3.72,1.88-4,2.32-2,3.31a12.44,12.44,0,0,1,2.57,1.77c.78.78,1.48.88,3.5.5a27.06,27.06,0,0,0,3.54-.87c.6-.23,1-.13,1,.25s-.39.65-.87.65-.88.28-.88.63.7.49,1.9.26l3.51-.68ZM60.88,259c.87-.49,1.11-.84.59-.85-1.5,0-3.5.67-3.5,1.21C58,260.14,59.21,260,60.88,259ZM380,258.49c2.75-.55,8.31-3,8.32-3.65,0-.91-6.33-3.26-7.95-3-.89.17-1.18,0-1-.54.53-1.39-2-1.2-5.51.42a14.67,14.67,0,0,1-3.07,1.13.59.59,0,0,0-.59.59c0,.32-.65.58-1.45.58s-1.46.26-1.46.58a.59.59,0,0,0,.58.59.58.58,0,0,1,.58.58c0,.32-.77.58-1.71.58-1.78,0-2.82.83-1.82,1.44a21.56,21.56,0,0,0,4.71.57,16.35,16.35,0,0,1,4.55.61c.36.36,2.15.2,5.79-.53Zm9.79-2.09c.19-.32,0-.58-.52-.58a1.6,1.6,0,0,0-1.24.58c-.19.32,0,.59.52.59A1.61,1.61,0,0,0,389.75,256.4Zm-22.42-3.11a25.12,25.12,0,0,1,3.7-1.55,6.29,6.29,0,0,0,1.92-1.17l1.49-1.17-2.85-.12-5.48-.23a32.39,32.39,0,0,1-6-1.05c-5.68-1.57-7.83-.94-7.75,2.28,0,1.47-.16,1.73-1.27,1.61-.72-.08-1.31.12-1.31.44s.59.58,1.31.59a20.55,20.55,0,0,1,4.52,1.16c4.08,1.44,7.51,1.21,11.73-.79Zm27.38,1.36c.68-.44.52-.56-.73-.57-.89,0-1.61.25-1.61.57C392.37,255.39,393.56,255.39,394.71,254.65Zm84.83-.55c.38-.39.23-1-.47-1.74a7.73,7.73,0,0,1-1.45-3.08c-.34-1.67-.62-1.91-2.12-1.86-2.42.1-8.61,1.41-9.3,2-.32.26-1.94.21-3.59-.12-2.69-.53-3.12-.47-4.18.59-1.39,1.4-1.1,1.87,1.15,1.87,1.08,0,1.66-.31,1.66-.88a.88.88,0,0,1,.87-.88c.5,0,.88.53.88,1.23,0,1.13.21,1.19,3.06.82s2.95-.32,2,.44c-1.23.92-.88,1.33,1.88,2.23,1.92.63,8.85.19,9.65-.6ZM60.3,252.81c0-.65-.75-.62-2.71.13-1.23.46-1.43.73-.82,1.11C57.62,254.58,60.3,253.64,60.3,252.81Zm384.76.31c3.76-1.89,3.79-1.91,2.74-2.57-.63-.4-.31-.56,1.18-.58a10.46,10.46,0,0,0,4-1.07c2.71-1.44,1.42-2.3-3.25-2.15a25.35,25.35,0,0,1-3.65,0,12.76,12.76,0,0,1,1.9-1.42c1-.71,1.37-1.11.73-.91a114.49,114.49,0,0,0-12.85,5.36c-1.59,1.17-.51,1.73,1.64.86,7.2-2.91,7.42-3,7.42-1.81a1.5,1.5,0,0,0,.73,1.36c.4.16-.07.32-1.05.34-2.21.06-8,2.08-8.31,2.87-.19.56,1.38,1,4.41,1.18a12.49,12.49,0,0,0,4.38-1.45Zm48.42-1.56c1.84-.76,3.17-1.56,3-1.78a8.14,8.14,0,0,0-3.09-.38,7,7,0,0,1-3.25-.55,7.42,7.42,0,0,0-2.91-.93c-1.85-.3-2.65-.13-3.77.78s-1.29,1.31-.72,2c.39.47.53,1,.32,1.23s.07.39.62.39.85.26.59.67c-.68,1.11,5.44.16,9.25-1.43Zm-7.89.1c.4-.4.87-.58,1.05-.4s-.15.51-.72.73c-.83.32-.9.25-.33-.33Zm46.64-2.72c1.24-.66,3.1-1.54,4.15-2,2.56-1,2.39-1.86-.3-1.44a81.78,81.78,0,0,1-11.49,1.16,19,19,0,0,0-6.45,1.1l-1.75.92,2.18.41a7.82,7.82,0,0,0,3.07.07c.55-.21.88,0,.88.6,0,.79.57.89,3.73.64a18.46,18.46,0,0,0,6-1.49Zm126.26-.08c10.88-.8,50.74-1.33,59.08-.78a70.39,70.39,0,0,0,13.13-.29c3.46-.41,8-.77,10.08-.81,7.21-.12,19-1.2,21.3-2,3.08-1,11.81-1.65,20.14-1.5a55,55,0,0,0,9.63-.56c4-.93,12-1.34,12-.62,0,.31.46.49,1,.38s2.78-.36,4.92-.57c7.22-.69,23.3-3.23,24.3-3.84.7-.43-.69-.52-4.85-.31-3.21.16-11.35.44-18.09.63a269.76,269.76,0,0,0-28.31,2c-13.82,1.54-17.21,1.62-46.1,1.1-15-.27-23.48.26-24.77,1.55s-32.81,1.67-46.43.43c-18-1.63-42-1-42,1,0,.3-.72.57-1.61.62-1.28.06-1.35.12-.35.32a2.07,2.07,0,0,1,1.53,1.29c.33,1.28,2.74,1.7,12.39,2.17,3.85.19,7.06.4,7.14.46s7.63-.16,15.91-.78Zm-598.66-.44a1.19,1.19,0,0,0-1.12,0c-.2.2.15.34.76.31s.82-.17.36-.35Zm553.08-.51c.14-.14-.72-.26-1.92-.26s-2,.24-1.83.54c.31.51,3.18.29,3.75-.28ZM565,247.5c-.29-.86-4-1.35-4-.52s1,1.15,2.82,1.21c.85,0,1.27-.23,1.13-.69Zm41.42.31a21.47,21.47,0,0,0-4.09,0c-1,.13,0,.24,2.2.23s3.1-.11,1.89-.23ZM49.21,246.29c.62-.26.55-.33-.24-.23a1.63,1.63,0,0,0-1.36,1c-.15.56-.06.64.25.23a3.8,3.8,0,0,1,1.35-1Zm536.83.46c7.37-.16,9.71-1,4.45-1.65a69,69,0,0,1-14.09-3.76,9.09,9.09,0,0,0-5.42-.7c-2.93.54-3.33.88-2.37,2,.61.73.58.88-.18.88a1.63,1.63,0,0,1-1.27-.58c-.53-.85-4-.71-5.24.21-1,.72-.82.84,1.77,1.22a6.92,6.92,0,0,1,4.23,1.91c1.33,1.44,1.49,1.47,6.43,1C577.14,247.11,582.4,246.84,586,246.75Zm-72.86-.83c0-.31-.4-.42-.88-.23s-.87.44-.87.56.39.23.87.23S513.18,246.23,513.18,245.92Zm43.58-.14c1.07-.38,1.94-.89,1.94-1.12s-3.43-.43-7.63-.43c-6.46,0-7.53.11-7,.81.43.51,2.2.88,4.85,1,2.3.11,4.56.25,5,.32a8.32,8.32,0,0,0,2.77-.59Zm-218.52-2a2.28,2.28,0,0,0-1.46,0c-.4.16-.07.3.73.3S338.64,243.92,338.24,243.76Zm106.66-4.37c0-.67-1-.62-2.39.12-1.66.88-.79,1.81.95,1,.79-.36,1.44-.87,1.44-1.14Zm53.24-1.22c1.89-.67,1.9-.67.45-1.06s-5.18-.2-8,.38c-.72.14-1.31.68-1.31,1.2,0,.8.51.88,3.5.54A30.44,30.44,0,0,0,498.14,238.17Zm41-5.11c.2-.32-.18-.58-.84-.58s-1.2.26-1.2.58.37.58.84.58A1.55,1.55,0,0,0,539.15,233.06Zm276.33-4.12c18.76-1.44,21-2.53,4.38-2.08-15.2.41-20.72,1-20.72,2.09,0,.61,4.05,1.08,6.71.79,1-.1,5.3-.46,9.63-.8Zm106.33-7.37a1.15,1.15,0,0,0-1.12.05c-.19.19.15.33.77.31s.81-.17.35-.36ZM516.29,204.36c2.74-1.41,2.13-2-1.1-1.13a9.7,9.7,0,0,1-3.69.29,3.62,3.62,0,0,0-2.7.6c-1,.78-1.05,1-.29,1.52,1.18.83,4.83.23,7.78-1.28Zm5.79,1.24c1.2-.33,2.19-.86,2.19-1.16,0-1.19-6.27-.17-7.85,1.27C515.64,206.41,519.41,206.34,522.08,205.6ZM691.38,204c1-.41,1-.47.06-1.27-1.52-1.27-17.77-1.63-17.77-.4s3.19,1.62,8.08,1.22c2.84-.23,3.65-.14,3,.31s-.09.62,2.33.59a17.48,17.48,0,0,0,4.29-.45Zm-158.32-2.19a22,22,0,0,1,7.71-.68c4.77.28,5,0,1.36-1.85-1.9-1-2.69-1-5.8-.55a53.49,53.49,0,0,0-5.35,1.08c-1,.28-2.75.68-4,.88-2.39.4-2.51,1.48-.13,1.22.81-.09,1.46.06,1.46.34,0,.73,1.13.62,4.71-.44Zm199.08-2.37a1.19,1.19,0,0,0-1.12,0c-.19.2.15.33.77.31s.81-.17.35-.35Zm4.56-.31c0-.26-.67-.46-1.5-.46s-1.34.24-1.15.54c.4.65,2.65.58,2.65-.08Zm-695.93-1.4c-.26-2.42-2.12-3.21-4.11-1.76-1,.76-1,.88,1.21,2,3,1.56,3.1,1.55,2.9-.26Zm711.94.86c8.33-1,8-1.77-.55-1.43-7.7.3-8.9.44-12.54,1.42C736.51,199.38,746,199.38,752.71,198.55Zm68.57-3.77c.85-.88.65-.93-2.59-.61-1.92.19-5.53.52-8,.73-2.8.24-4.37.61-4.14,1s2.8.46,7.1.23c5.14-.27,7-.59,7.64-1.32Zm6.17-.82a2,2,0,0,0-1.5-.59c-.62,0-1.13.27-1.13.59s.67.58,1.5.58S827.65,194.29,827.45,194Zm-273.87-2.41c-.76-.72-7.14-1.28-7.14-.63a1.1,1.1,0,0,0,.73.89c1.12.44,6.9.2,6.41-.26Zm65.23-.53c0-1-1.63-1.3-4.53-.8l-2.77.49,3.21.36c1.77.2,3.41.41,3.65.46s.44-.18.44-.51Zm-152.34-.54c1-.66.72-.8-4-1.74-2.48-.49-3.42-.45-4.67.21s-1.35.91-.7,1.14C459.77,191,465.27,191.24,466.47,190.48Zm389.43-.65c5.35-.73,6.77-1.33,4.87-2.06a40.25,40.25,0,0,0-7.42.6c-3.63.51-7.82.92-9.32.92-1.79,0-3,.32-3.5.94-.71.85-.31.91,4.45.65,2.87-.15,7.79-.63,10.92-1Zm41.29.09c0-1-.37-1.1-3.1-.95-6.8.38-7.25,2.05-.55,2.06,3.21,0,3.65-.12,3.65-1.11Zm7.71.39c-1.41-.45-2.11-.44-2.6.06s0,.66,1.92.61l2.6-.06Zm-347-.75c.49-1.26,0-1.56-1.77-1.11s-2,1.21-.51,1.6c1.77.46,1.93.43,2.28-.49Zm114.18-.08a33.15,33.15,0,0,1,5.91-.24c4.26,0,5.61-.14,6.2-.85s-.29-.87-9.71-.54c-6.86.24-11.22.65-12.68,1.2a5.72,5.72,0,0,1-2.67.57,4,4,0,0,0-2.15.24c-1.08.32,1.3.4,6.46.21A75.7,75.7,0,0,0,672.09,189.48Zm-62.62-.55a5,5,0,0,0-2-.22c-1.12,0-2,.21-2,.46s.92.36,2,.23A5,5,0,0,0,609.47,188.93Zm106.07-.07a42.67,42.67,0,0,0-5.54,0c-1.53.12-.28.22,2.77.22S717.07,189,715.54,188.86Zm-64.37-.7c-.3-.31-2.46-.68-4.79-.84-3.43-.24-4.23-.14-4.23.54s1,.85,4.79.85C649.94,188.71,651.52,188.5,651.17,188.16Zm-175.48-.53c.57-.36.48-.71-.39-1.5-1.21-1.09-2.2-1-5.76.67-1.73.8-2,.8-2.94,0-.67-.61-1.3-.75-1.86-.4-.73.45-.73.56,0,.8l1.74.57c1.44.48,8.41.4,9.21-.11Zm148.37-.09c0-.32-.54-.58-1.2-.58s-1,.26-.84.58a1.55,1.55,0,0,0,1.2.58C623.68,188.12,624.06,187.86,624.06,187.54Zm116.59-.84c.6-.61-4.82-.32-5.7.3-.64.45,0,.54,2.24.32A12.73,12.73,0,0,0,740.65,186.7Zm-132.93-1c2.09-.32,4.19-.67,4.67-.78l1.17-.24c.16,0-.07-.28-.5-.56-1.31-.83-10.95-.8-12.29,0l-1.19.75,1.2.64c1.56.83,2.36.85,6.94.15Zm-61-2.2c3.32-1.58,3.41-1.68,1.76-1.87a10.4,10.4,0,0,0-3.8.51c-1.12.39-3.16,1-4.54,1.34s-2.34.88-2.15,1.19C538.68,185.76,543.24,185.15,546.73,183.48ZM32.29,180.83c.59-.72.48-1.06-.61-2-1.31-1.06-3.4-1.16-6.92-.35l-1.39.32,1.33.93a13.64,13.64,0,0,0,5.91,1.86,2.32,2.32,0,0,0,1.68-.81Zm40-6.09a2.59,2.59,0,0,0-2-.56c-1.21.06-1.3.14-.4.35a4.7,4.7,0,0,1,1.71.8C72.33,176,72.8,175.56,72.29,174.74Zm816.59.11c.17-.52-.62-.73-2.73-.73-2.78,0-3.53.4-2.55,1.39C884.28,176.18,888.61,175.64,888.88,174.85ZM86.56,168.78c0-1.3-3.44-4.73-4.38-4.37a1.39,1.39,0,0,1-1.33-.33c-.79-.79-5.58-.72-5.85.08a1.12,1.12,0,0,1-1,.62c-1.11,0-1,2,.1,3.79.88,1.35,1.18,1.41,6.71,1.31,5-.09,5.78-.23,5.78-1.1Zm475.91-15.63c.46-.76-2-2.38-3.61-2.38s-1.58.2-.72,1.79C558.77,153.75,561.84,154.16,562.47,153.15Zm70.64-1.5c0-.32-.72-.67-1.61-.77-1.17-.14-1.6.07-1.6.77s.43.9,1.6.77C632.39,152.31,633.11,152,633.11,151.65Zm-56.65-1.4c.52-.84-2.57-2.51-4.66-2.51a15.81,15.81,0,0,0-4.12.72c-2,.67-2.11.77-1.09,1.52,1.23.89,9.34,1.12,9.87.27Zm333.13-12.39a7.17,7.17,0,0,0-3.79,0c-1.66.48-1.43.55,1.89.55s3.56-.07,1.9-.55Zm27.87-2.26c0-.32-.51-.59-1.14-.59a2,2,0,0,0-1.49.59c-.2.33.29.58,1.13.58S937.46,135.92,937.46,135.6Zm-404-19c2.07-.56,1.57-1.59-.57-1.16s-3.58,1.53-1.88,1.51a11.75,11.75,0,0,0,2.45-.35Zm-92.65-1.39c0-.32-.39-.58-.87-.58h-1.32a.81.81,0,0,0-.63.58c-.11.32.48.59,1.31.59S440.81,115.49,440.81,115.17Zm519.34-1.37c1.26-1,4.74-1,4.74,0s3,.64,6.33-.73a4.52,4.52,0,0,1,2.48-.48c.29.18.52,0,.52-.29s.4-.62.88-.62.87-.52.87-1.17c0-1.32.1-1.31-13.56-1.4-8.24-.06-9.12.21-6.9,2.11.81.69,1.21.77,1.42.28s.3-.24.32.33a.9.9,0,0,1-.83,1c-.49,0-.87.52-.87,1.21,0,1.06.23,1.16,1.9.81a8,8,0,0,0,2.7-1.06Zm-319.32-1.91c1.71-.46,1.11-1.38-.9-1.39a20.92,20.92,0,0,1-4.49-.92c-7.48-2.33-21.08-1-14.21,1.45a17.83,17.83,0,0,0,9.26,0c2.83-.87,5.88-.73,6.94.33s1.45,1,3.4.52Zm63.58-.29c-1.45-.84-19.56-1.45-18.78-.63s3.09,1.1,12,1.18C703.38,112.2,705.19,112.05,704.41,111.6Zm-120.62-.45c.8-.22,1.19-.56.87-.74a5.88,5.88,0,0,0-2.91.4c-1.76.56-2,.74-.87.74a13.24,13.24,0,0,0,2.91-.4Zm-472.72-1.23c.26,0,.34-.53.17-1.17-.22-.85,0-1.17.79-1.18a5.36,5.36,0,0,0,2.55-1.15,5.51,5.51,0,0,1,2.18-1.16c.41,0,.73-.23.73-.49s.66-.84,1.46-1.27,1.46-1.1,1.46-1.5c0-.87,3-2,5.34-2,1.25,0,1.67-.28,1.67-1.11a1.64,1.64,0,0,0-2.8-1.09c-.71.59-1,.59-1.14,0-.14-.4-.88-.73-1.66-.73s-1.44.33-1.47.73a11.24,11.24,0,0,1-.21,1.31c-.07.32-.17,1-.22,1.46-.07.66-1,.91-3.72,1s-3.9.41-4.93,1.46c-.72.72-1.71,1.65-2.21,2.07-1.28,1.07-1.12,2.41.36,3,1.08.4,1.12.52.29.84-.53.2-1,.67-1,1s.41.51.92.31a5.47,5.47,0,0,1,1.41-.35Zm837.14.23c2.55-1,0-1.4-8.42-1.4-6.15,0-9.34.21-9.34.62s1.45.56,3.8.49a13.21,13.21,0,0,1,4.18.26c.49.48,8.53.51,9.78,0Zm-416.36-1.29c0-.25-1-.92-2.29-1.48a23.57,23.57,0,0,1-5.1-3.6c-3-2.74-3.65-3-5.49-2-1.1.59-1.1.64.15,2.33,1.09,1.48,1.67,1.73,3.91,1.73,2.41,0,2.53.07,1.49.84s-1.09.84.33,1.37l2.33.87c1.36.52,4.67.48,4.67,0Zm138.9-1.27c1.35-.08,1.37-.13.29-.59-1.62-.69-18.47-.69-19.55,0-.63.41,0,.58,2.34.63,1.76,0,4.52.23,6.12.45a29.89,29.89,0,0,0,6.13,0c1.77-.22,3.87-.44,4.67-.48Zm63.18.78a2.15,2.15,0,0,0-1.46,0c-.4.16-.08.29.73.29S734.33,108.53,733.93,108.37Zm26.8,0c2-.33,2.11-.44,1.59-1.82a3.8,3.8,0,0,1-.4-1.6c1.34-1,3.37-1.25,9.42-1,3.9.14,7.45.37,7.9.51,1.33.43.19,1-2.74,1.45-1.51.21,4.82.42,14.07.46,11.12,0,16.69-.12,16.45-.51s-1-.43-1.7-.25a4.73,4.73,0,0,1-3.25-.82,4.55,4.55,0,0,0-2.65-.88,1,1,0,0,1-1.18-.43c-.33-.54.06-.62,1.54-.34s1.73.22,1-.22a6.8,6.8,0,0,0-3.47-.19c-2.11.34-2.29.47-1.2.87.71.26,1.26.81,1.24,1.22,0,.59-.11.59-.34,0a1.55,1.55,0,0,0-1.37-.73,1.38,1.38,0,0,1-1.29-.65c-.12-.38-2-.74-4.57-.85s-6.19-.32-8.44-.47c-15.14-1-23.38-1.07-25.49-.18-1.94.81-2.23.81-2.9,0s-1.8-.84-7.48-.5c-10.13.61-29.19.46-37-.27s-10.41-.46-9.05.89c.53.53,2.74.92,6.31,1.12a40.78,40.78,0,0,1,5.71.54c.13.13-.69.41-1.83.62-2,.38-2.8,1.21-1.34,1.41,6.14.87,8.93,1.07,12.11.85,2.08-.15,5.23-.28,7-.29,7.68,0,8.75.1,9.76,1.29s1.72,1.16,11.23,1.16c5.63,0,11.2-.17,12.38-.36Zm-195.86-1.44c.61-1-1-1.73-3-1.33-2.25.46-2.73.76-2.31,1.43s4.78.68,5.27-.1Zm-16-1.6c2.09.12,8.73-1.26,10.38-2.17,1.33-.73,1-.78-3.49-.53a42.73,42.73,0,0,0-6.71.82c-1,.28-2.47.68-3.36.87-1.1.25-1.6.73-1.6,1.53,0,1.11.09,1.12,1.71.28a7.34,7.34,0,0,1,3.07-.8Zm36-.28c2.57-1.06,3-1.48,2.86-2.53s-.08-1.21,1.29-.66c1.82.73,6.46.62,7.42-.17a1.63,1.63,0,0,1,1.18-.44c1.23.34,3.13-.84,3.13-1.94s-.24-1.15-3.07-.76a24.18,24.18,0,0,0-4.52,1,4.81,4.81,0,0,1-2,.46c-.32-.08-2.29-.28-4.38-.44a13.41,13.41,0,0,1-4.35-.83c-.93-.88-3.4-.64-3.05.3.47,1.21-1.71,3-2.67,2.21-1.35-1.12-9.21-1-12.69.15l-2.63.89,2.34-.29c1.28-.16,3.17-.44,4.18-.63,1.53-.29,2.09-.08,3.21,1.25,1.8,2.1,6.53,4.19,8.87,3.91a25.33,25.33,0,0,0,4.92-1.5Zm28.84,1.3c-1-.92-4.7-1.69-8-1.69-3.86,0-4.73.34-3.78,1.49.41.49,2.42.69,6.39.64,3.19,0,5.61-.24,5.38-.44Zm236.24,0c1.44-.21,2.23-.45,1.75-.54a5.43,5.43,0,0,0-1.32-.08c-.24,0-.37-.26-.29-.66a.46.46,0,0,0-.57-.59c-.44.08-.67-.38-.59-1.17.13-1.24-.09-1.32-4.17-1.48s-4.29-.13-4,1.07c.25.92.11,1.15-.54.9-.47-.18-.72-.1-.54.18.49.79-1.26,2-3.64,2.44-2.69.54,10.07.47,13.89-.07Zm-6.57-3.28a2.28,2.28,0,0,1,1.46,0c.4.17.07.3-.73.3S843,103.28,843.35,103.11ZM464.26,106a1.13,1.13,0,0,0-1.11,0c-.2.19.15.33.76.3s.82-.16.35-.35Zm72.17-.49c.67-.66-.89-1.45-2.86-1.45-2.41,0-3.32,1.39-1.28,2,1,.26,3.71-.06,4.14-.5Zm318.16.34c0-.69-1.14-1.43-1.56-1s.32,1.56,1,1.56A.55.55,0,0,0,854.59,105.87Zm6.71-.62c-.2-.32-.11-.58.21-.58a1,1,0,0,1,.81.72c.17.51.56.4,1.33-.37.6-.6,1.19-.82,1.3-.49.23.7,2.47.24,2.47-.51,0-.29-1-.52-2.28-.52a13.21,13.21,0,0,1-3.36-.38c-.59-.22-.87-.17-.63.09.59.65-.71,2.12-1.47,1.65-.35-.22-.43-.09-.19.3a1.67,1.67,0,0,0,1.29.67C861.26,105.83,861.5,105.57,861.3,105.25Zm20.13,0a9.05,9.05,0,0,0,3.5-.61c1.56-1-.55-1.73-4.37-1.46-1.92.14-5,.3-6.88.37s-3.53.35-3.69.62a.61.61,0,0,1-.85.16c-.29-.18-.38.07-.2.56.28.72,1.24.84,5.1.64,2.62-.13,6-.26,7.39-.28Zm46.11-1.5c3.49-.43,7.4-1.82,6.81-2.4-.2-.2-4,0-8.49.39-6.58.62-8.07.92-7.82,1.59.47,1.22,2.51,1.8,4.52,1.28,1-.25,3.21-.64,5-.86Zm-119.79,0c2.46-.66,1.32-1.4-1.75-1.13l-3.5.3c-.24,0-.44.29-.44.61,0,.64,3.6.78,5.69.22Zm137.15,0a4.68,4.68,0,0,0-2,0c-.57.15-.11.27,1,.27S945.46,103.83,944.9,103.68Zm-88.56-1.35c0-1.2-2-1.68-2.6-.64-.18.3.2.4.84.23.82-.21,1.17,0,1.17.64s.13.94.29.94.3-.53.3-1.17Zm-208.09-.65c.33-.3-1.49-.49-4.37-.47-4.68.05-4.84.09-3.19.86C642.51,102.91,647.19,102.67,648.25,101.68Zm42-.19c-5.31-3.19-5.64-3.29-10.68-3.19-3.19.07-5,.34-5.15.8s-1.9.67-5.64.6c-6.34-.13-7.66.17-5.22,1.2,2.26.95,6.79,1.31,7,.56.11-.32,1.94-.88,4.08-1.25,3.36-.57,4.09-.53,5.35.29,2.56,1.66,4.86,2.28,8.75,2.34l3.8.06-2.34-1.41Zm139.34,1a2.28,2.28,0,0,0-1.46,0c-.4.16-.08.29.73.29S830,102.69,829.64,102.53Zm6.27-.2c0-.32-.85-.56-1.9-.54-1.59,0-1.7.12-.73.54C834.9,103,835.91,103,835.91,102.33Zm4.09.13c0-.26-.79-.52-1.76-.6s-1.75.14-1.75.46.79.6,1.75.6S840,102.71,840,102.46Zm12-.13c.2-.32-.24-.58-1-.57-1.08,0-1.17.12-.47.57C851.59,103,851.53,103,852,102.33Zm-220.79-1a1.13,1.13,0,0,0-1.11.05c-.2.19.15.33.76.3s.82-.16.35-.35Zm232.72-.58c.15-.12-.58-.16-1.6-.08s-1.87.35-1.87.61c0,.43,2.87,0,3.47-.53Zm-369.24-.33c.31-.93,4.52-1,4.52-.06,0,.38.89.67,2,.67,2.55,0,2.58-.49.15-1.89A21.86,21.86,0,0,1,498.21,97a4,4,0,0,0-6.2,1.14c-.61,1-.93,2.15-.73,2.48.53.84,3.08.74,3.37-.13Zm43.15.33a1.19,1.19,0,0,0-1.12,0c-.19.2.15.33.77.31s.81-.17.35-.35Zm82.87,0a1.19,1.19,0,0,0-1.12,0c-.19.2.15.33.77.31s.82-.17.35-.35ZM893.9,99.12c2.13-1.11,2.66-1.1,4,.12,1,.93,1.07.92.67-.1-.29-.75-.2-1,.27-.66s.68.17.68-.13c0-.88-2.14-1.2-6-.92-7.72.55-10.36,1.21-8.24,2,1.94.76,6.89.56,8.64-.35Zm33.45-.05c3-.32,4.37-1.21,4.67-3.17.24-1.54-1.41-1.7-4.7-.45-1.74.66-3.09.88-3.5.56-2-1.53-6.56-1.14-9.52.79l-1.54,1,1.28.69c.7.38,1.14.82,1,1C914.67,99.83,922.54,99.56,927.35,99.07Zm-419.89-.75a3.91,3.91,0,0,1,1.93-1.39c.95-.24.88-.31-.33-.37a3.59,3.59,0,0,0-2.27.67c-.46.43-.63.45-.42.06s-.26-.79-1.22-1-2.36-.51-3.29-.74l-1.69-.41,1.32,1.32c1.28,1.28,4,2.92,4.8,2.93.22,0,.75-.49,1.17-1.09Zm112.08-.46a2.28,2.28,0,0,0-1.46,0c-.4.16-.07.3.73.3S619.94,98,619.54,97.86Zm317.33-.49c-.35-.7-4.14-.42-5,.38-.38.37.44.5,2.34.39,1.7-.11,2.79-.43,2.62-.77ZM595,97c-.36-.37-2.58-.78-4.93-.92-4-.23-4.19-.18-3.14.66C588.35,97.86,596.14,98.11,595,97ZM450,95.12l1.35-.75-2.26-1.56a6.75,6.75,0,0,0-6.37-1.21c-1.19.32-1.2.39-.26,1.34C445.47,95.9,447.55,96.5,450,95.12ZM875.6,88.66c4.14-.53,11.42-1.27,14.15-1.44,1.08-.06,1.16-.18.44-.67-1.08-.73-24-.16-26.62.67s-3.81,1-9.14,1.44a29.2,29.2,0,0,0-5.1.67c-.33.32,23.21-.29,26.27-.67Zm-329.26-.35c.91,0,.91-.06,0-.59-1.07-.63-2.82-.18-2.82.73,0,.32.42.43.93.23a6.81,6.81,0,0,1,1.89-.37Zm118.28-.54c.32-.23,6.23-.46,13.13-.52s13-.26,13.65-.45a1.37,1.37,0,0,1,1.51.33c.32.51,2.42.53,8.53.06,4.47-.33,8.78-.6,9.58-.59,1.35,0,1.38.07.42.8s-.93.83-.13,1.14c1,.38,19.55-.07,23.62-.58,2.4-.3,2.53-.4,1.52-1.13-1.66-1.22-7-2.61-11-2.9-17.76-1.27-33-1.64-38.63-.92-10,1.28-24.1,1.5-29.83.47-9.33-1.69-33.81-2.42-37.58-1.13-3.27,1.13-6.95,1-12.1-.39a26.5,26.5,0,0,0-6.09-1.12c-1.91.29-2,1.56-.09,2,.91.18,2.6.59,3.76.89a30.16,30.16,0,0,0,13.71.33c5.28-1.37,14.06-1.69,17.53-.64a20.11,20.11,0,0,0,4.1.86c.69,0,1.35.26,1.46.57.17.51,4.51,1,9.82,1.14a6.28,6.28,0,0,1,3.79,1.55c1.6,1.38,2,1.47,5.25,1.1a15.5,15.5,0,0,0,4.09-.82Zm116.43-.07c4.33-.35,9.72-.65,12-.67,5.48,0,7.71-.94,2.62-1a42.87,42.87,0,0,1-5-.32c-3.68-.77-27.48.06-44.94,1.58-.64.05,2.38.38,6.71.74a168.44,168.44,0,0,0,28.6-.28ZM597.91,85.59a1.18,1.18,0,0,0-1.12,0c-.19.19.15.33.77.31s.81-.17.35-.36Zm-1.28-2.11c0-1.37-1.36-2.16-3.76-2.15H590.5l1.76,1.44c1.88,1.54,4.37,2,4.37.71Zm319.66-.23a3.31,3.31,0,0,0-1.75,0c-.4.16.07.29,1,.27s1.29-.14.72-.29Zm7-.76c.48,0,.72-.23.55-.51-.41-.66-3.26-.1-3.26.64,0,.32.42.42.93.22a6.1,6.1,0,0,1,1.78-.35ZM448.38,80.76c1.29-.82.42-1.27-2.64-1.38-1.67-.06-2.86.17-3,.58C442.35,81.05,446.91,81.7,448.38,80.76Zm5.57-.61a.67.67,0,0,1,.92-.25,4.76,4.76,0,0,0,2.44-.09c1.86-.43,1.86-.44.43-.86-1.61-.47-5.84-.69-5.84-.3a6.37,6.37,0,0,0,.35,1.17c.41,1.05,1.16,1.2,1.7.33ZM929.8,77.37a5.36,5.36,0,0,1,2.76-.85,11,11,0,0,0,3-.65c.91-.56,1.28-2.61.53-2.9-1.88-.71-13.8,2-13.8,3.11,0,.27-.59.69-1.31.92-1.13.36-1,.51,1.31,1.07,2.75.69,6.89.3,7.52-.7Zm-465.65.1c0-.13-.39-.23-.87-.23s-.88.25-.88.56.4.42.88.23S464.15,77.59,464.15,77.47Zm370.3-2.56c.2-.33,0-.43-.55-.23-1,.39-1.2.81-.36.81a1.26,1.26,0,0,0,.91-.58Zm23,0c.48-.1-1.35-.34-4.08-.54-5.95-.43-17.51,0-17.51.6C835.91,75.35,855.42,75.3,857.5,74.88ZM472.33,73.74c0-.33-.41-.59-.91-.59s-.75.26-.55.59a1.22,1.22,0,0,0,.91.58A.57.57,0,0,0,472.33,73.74Zm469.4-1.44c-.16-1.88.91-3.23,2.6-3.27a9.13,9.13,0,0,0,2.76-.55c.91-.39.65-.51-1.21-.54a6.87,6.87,0,0,0-3.5.82,4.41,4.41,0,0,1-2.06.87,3.55,3.55,0,0,0-2,1.18c-.87,1-.92,1.31-.28,2.07,1.09,1.32,3.8.89,3.67-.58Zm-521.82.45a1.21,1.21,0,0,0-1.12,0c-.19.19.15.33.77.31s.82-.17.35-.36Zm47.75-1.23c0-.83-1.37-1.87-2.45-1.87a1.09,1.09,0,0,0-.67,1.95c.55.55,3.12.48,3.12-.08ZM564,70.88c1.78-.49,1.82-1.31.12-2.16a13.5,13.5,0,0,1-2.43-1.67c-.87-.79-1.67-1-3.36-.65-5.68,1-7,2.83-2.31,3.14,1.91.12,2.73.43,2.73,1,0,.91,2.58,1.06,5.25.32ZM411.17,69.57c-2.62-1.21-4.79-1-4.79.41,0,.64.85.83,3.65.79l3.64,0-2.5-1.15Zm66.2-.36c-.89-3.19-1.09-3.64-1.58-3.64-.78,0-.67,2.14.18,3.5S477.76,70.6,477.37,69.21ZM784,70c0-.12-.53-.36-1.17-.53s-1.17-.07-1.17.23.53.52,1.17.52S784,70.13,784,70Zm-179.5-1.82c0-.32-1.17-1-2.53-1.5a7,7,0,0,0-5.21-.23c-3.7.94-4,2.47-.57,2.72C599.77,69.44,604.52,68.87,604.47,68.19Zm-198.09-.87c-1.15-.75-3.5-.75-3.5,0,0,.32,1,.58,2.18.57C406.69,67.88,407,67.74,406.38,67.32Zm10.5-1.06a4.12,4.12,0,0,0-.78-1.55c-.55-.74-.92-.87-1.21-.4-.58.94-2.09.84-2.09-.14s-1.27-1.52-3.84-1.52c-2.07,0-2.34.31-1.48,1.67.76,1.19,9.4,3,9.4,1.94Zm32.28-3.32c2.23-1.12,3.38-1.1,1.9,0s-.84,1.09,1.8,0,3.71-1.11,3.71,0c0,.59.43.8,1.31.63a22.89,22.89,0,0,1,2.34-.29c1.74-.07,1.12-1.06-.88-1.39-3.79-.62-6-1.34-5.72-1.88.6-1.32-2.61-2.09-7.46-1.79-5.11.32-6.12,0-10.31-2.92-5.19-3.65-21.64-8.47-22.75-6.66-.2.32-.16.59.1.6A12.94,12.94,0,0,1,416,50.71c2.46,1.57,2,1.57-3.35-.05-2.79-.84-3.63-.89-5.1-.27-2.07.85-2.19,1.4-.61,2.75,1.25,1.07,5.79,2.61,6.47,2.19.39-.24,2.23,0,13.09,1.45,12.9,1.76,14.73,2.35,10.65,3.41-1,.27-2,.9-2.07,1.41-.14.73.81,1.12,4.38,1.82,4.92,1,7,.87,9.69-.49ZM396,60.78c.18-.53,1-.55,3.57-.1,1.84.34,3.46.43,3.59.21.34-.54-5.75-3.49-7.19-3.49a19,19,0,0,0-2.94.36c-1.62.32-1.74.48-1.15,1.6,1.1,2.09,3.61,3,4.12,1.42Zm12.7-2.22c0-.32-.54-.58-1.2-.58s-1,.26-.84.58a1.55,1.55,0,0,0,1.2.59C408.33,59.15,408.71,58.88,408.71,58.56ZM217.87,56.23a.57.57,0,0,0-.55-.59,1.24,1.24,0,0,0-.9.59c-.2.32,0,.58.54.58S217.87,56.55,217.87,56.23ZM383,54c.36-.78.52-1.56.36-1.72-.57-.56-4.71-.42-4.62.15.06.33.19,1,.3,1.46s-.35.94-1.41,1.06c-1.5.18-2,.69-1.32,1.37a8.45,8.45,0,0,0,3.16-.3c2.17-.44,3-.94,3.53-2Zm8.78,2.3c0-1-1.71-1.92-2.86-1.55-1.71.54-.85,2.06,1.17,2.06C391,56.81,391.79,56.58,391.79,56.3ZM163.6,53.6c1.9-.73,1.82-1-.29-1-2.51,0-3.21.23-3.21,1C160.1,54.65,160.88,54.65,163.6,53.6Zm24-1.27a1.18,1.18,0,0,0-1.12,0c-.2.2.15.34.76.31s.82-.17.36-.35Zm40.67-1.09c1.2-1.2-5.11-1.87-10-1.06-2.31.39-2.87,1.12-1.17,1.55C218.49,52.07,227.9,51.65,228.31,51.24Zm36.1-.09a3.45,3.45,0,0,0-1.76,0c-.39.16.07.28,1,.27s1.28-.15.72-.3Zm121-1.11c0-1-.83-1-2.51-.14-1.23.66-1.23.69-.1,1.09,1.46.52,2.61.1,2.61-1Zm-93.09.45c1.49-.26,2.34-.72,2.34-1.28s-1-.86-5.37-.88c-2.95,0-5.55-.2-5.78-.43a7.05,7.05,0,0,0-3-.43c-2.14,0-2.54.18-2.36,1s.67,1,2.08.83a3.64,3.64,0,0,1,2.8.73C284,51,288.1,51.24,292.28,50.49Zm-34-1.08a1.16,1.16,0,0,0-1.12.05c-.19.19.15.33.77.3s.82-.16.35-.35Zm9.81-.13c0-.78-3.24-1.76-4.63-1.4s-1.58,1.1-.47,1.54c1.27.52,5.1.41,5.1-.14ZM382.21,49l1.64-.86-2.6-1.17a14.57,14.57,0,0,0-3.32-1.19c-.89,0-.95,1.4-.13,2.94.72,1.35,2.17,1.44,4.41.28Zm-45.65-2.7c2.75-1.32,4.05-1.66,4.84-1.27a10.29,10.29,0,0,0,3.26.65c1.87.1,2.19-.06,2.19-1.09,0-2.9-2.72-5.82-3.79-4.08a2.94,2.94,0,0,1-2,.58,4.18,4.18,0,0,0-2.59.92,2.72,2.72,0,0,1-1.93.78,7.32,7.32,0,0,0-2.78.56c-1,.39-2.08.81-2.48.95s-.73,1.06-.73,2c0,2.32,1.15,2.31,6.05,0Zm15-1.67c0-.79-1-1.31-1.4-.71s.15,1.26.91,1.26a.53.53,0,0,0,.49-.55Zm17.75.2c1.54-.59,1-1.4-.86-1.4a7.3,7.3,0,0,1-2.92-.61c-.86-.45-1.13-.41-1.13.18C364.36,44.76,366.88,45.7,369.27,44.79ZM208.52,42.37c0-.46-4.07-2.53-4.07-2.08a6,6,0,0,0,.61,1.39C205.63,42.74,208.56,43.33,208.52,42.37ZM219,41.58a.56.56,0,0,0-.58-.53.61.61,0,0,0-.59.62c0,.34-.3.43-.67.2s-.52-.16-.27.24C217.37,42.82,219,42.4,219,41.58Zm-8.64.24a1.15,1.15,0,0,0-1.12,0c-.2.19.15.33.76.31s.82-.17.36-.36Zm157.46-.18c0-.32-.46-.58-1-.58-.87,0-.9.09-.15.58C367.79,42.35,367.86,42.35,367.86,41.64Zm35.81-.36c4.05-.67,4.46-.85,4.46-1.92a1.64,1.64,0,0,0-1.31-1.44c-1.7-.45-9.2,1.9-9.2,2.87s1.15,1.43,2.84,1.08c.76-.16,2.21-.42,3.21-.59Zm-119.85-.07a3.58,3.58,0,0,0-.84-1.08c-.84-.84-1.87-.16-1.26.83C282,41.44,283.82,41.66,283.82,41.21ZM183.44,39.85c0-.34-.26-.45-.58-.25s-.59.47-.59.61.27.26.59.26A.6.6,0,0,0,183.44,39.85ZM412.67,37c-.25-1.26-1.93-1.16-1.83.1,0,.57-.16,1-.44,1a.54.54,0,0,0-.52.57c0,.34.59.3,1.48-.11S412.77,37.53,412.67,37Zm-202.38.54c0-.92-3.18-1.6-4.67-1l-1.46.58,1.93.44a7.37,7.37,0,0,1,2.24.75c.42.42,2-.18,2-.77Zm11-2.45c1.05-1.05.84-2.09-.5-2.52a2.22,2.22,0,0,0-2.89,2.13c0,1.26,2.25,1.53,3.39.39Zm209.92.12a1.29,1.29,0,0,0-.94-.59c-.32,0-.42.27-.23.59a1.29,1.29,0,0,0,.95.58C431.28,35.8,431.38,35.54,431.18,35.22ZM209.7,33.47c0-.32-.51-.59-1.13-.59a2,2,0,0,0-1.49.59c-.21.33.28.58,1.13.58S209.7,33.79,209.7,33.47Zm5.4.19a2.28,2.28,0,0,0-1.46,0c-.4.17-.07.3.73.3S215.5,33.83,215.1,33.66Zm207.87-3c.18-.29-.27-.68-1-.87-1.92-.52-2.18-.46-2.18.51S422.42,31.51,423,30.62Zm-6.81-1.24c.18-.94-5.27-3.25-6.24-2.65a3.16,3.16,0,0,1-2-.24c-2.17-.82-2.51.33-.41,1.41a8.26,8.26,0,0,0,3,.9,3.5,3.5,0,0,1,2.14.91c1.1,1.09,3.31.89,3.54-.33ZM435,28.65c0-.24-1.05-.44-2.33-.44s-2.33.24-2.33.53,1,.49,2.33.44,2.33-.29,2.33-.53Zm-78.13-1.33c3.94-1.39,6.93-2.79,6.93-3.24,0-1.53-5.17-1.43-8.29.15-3.71,1.87-4.09,2.25-3.31,3.19s1.54,1,4.67-.1Zm-33.48-4.14c.72-.2,1.31-.65,1.31-1a5.67,5.67,0,0,1,1.46-2.24c1.74-1.88,1.86-2.79.37-2.79-1.25,0-2.61,1.35-2,2,.22.22-.19.56-.91.75a4.27,4.27,0,0,0-2.17,2C320.49,23.68,320.78,23.87,323.36,23.18ZM349.93,15c.53-.54-1.34-3.15-2.25-3.15-.68,0-2,1.69-2,2.55,0,.26,1.46.65,3.26.88A1.38,1.38,0,0,0,349.93,15Zm5.36-2.38c2.28-1.08,2.46-1.46,1.23-2.48-.6-.5-1.42-.54-2.88-.13a5.1,5.1,0,0,1-2.29.31c-.14-.13-.59.17-1,.67-.65.79-.58,1,.5,1.25.69.19,1.26.57,1.26.85,0,.76.88.63,3.19-.47ZM8.52,274.53a1.45,1.45,0,0,1,.9-1.44c.54-.17.26-.22-.62-.11s-1.61-.07-1.61-.39-.74-.43-1.69-.24c-1.25.25-1.8.09-2.07-.6a1.61,1.61,0,0,1,.23-1.55c1-1,2.81-1,3.17-.07a1.71,1.71,0,0,0,1.55.86c.67,0,1,.27.86.59s0,.61.55.65c1.68.14,2,.22,2.45.7s-2,2.7-3,2.72C8.88,275.66,8.57,275.15,8.52,274.53Zm27-117.75c-.32-.83-.25-.9.32-.33.4.4.58.87.4,1.05s-.51-.15-.72-.72Zm952.74-21.69-1.41-.4,1.64-1.07c1.54-1,1.76-1,3.63-.13,1.09.52,1.83,1.21,1.63,1.53-.39.64-3.31.68-5.49.07Zm2.28-18.75a4.82,4.82,0,0,0-2.15-.58c-1,0-1.23-.29-1-1.25a4.29,4.29,0,0,1,.47-1.47c.43-.44,5.08,2.36,4.89,2.94C992.44,116.83,991.56,117,990.56,116.34Zm23.22-11c-.37-1.4.91-2.63,1.81-1.73s.85,2.76,0,2.76c-.36,0-.49-.45-.29-1,.33-1,.3-1-.45,0s-.82,1-1.08,0ZM83.26,99.51c-.53-.85-.5-1.07.15-1.07a1,1,0,0,1,.82,1.07c0,.59-.07,1.07-.15,1.07A3.91,3.91,0,0,1,83.26,99.51Zm890.81-6c.39-.4.87-.58,1-.4s-.14.5-.71.72c-.84.32-.9.25-.33-.32Zm31.38-10.28a10.31,10.31,0,0,1-2.72-1.39,5.8,5.8,0,0,0-2.41-1.1,2.41,2.41,0,0,1-1.58-.88,2.84,2.84,0,0,0-1.92-.87c-.66,0-1-.15-.86-.34a10.75,10.75,0,0,1,3.75.09c1.87.24,3.07.54,2.67.68-1,.35-.91,1.32.15,1.32.48,0,.87.26.87.58s.59.59,1.32.59c2.06,0,3.95.66,3.6,1.23s-1,.57-2.87.09Zm-5.06-8.32a15.34,15.34,0,0,1-4.28-.69c-.21-.21-.1-.93.26-1.59.83-1.55,4.12-2.47,5.16-1.43.41.41.67.86.58,1s.47.81,1.24,1.48,1.3,1.29,1.17,1.37A29.58,29.58,0,0,1,1000.39,74.91Zm22.68-5.63a18.51,18.51,0,0,0-3.42-1.36c-2.75-.9-3.06-1.17-3.06-2.68s.29-1.74,2-2.13c2.45-.54,4.8-.09,4.48.87-.12.39.78,1.7,2,2.92a16.2,16.2,0,0,1,2.23,2.48C1027.33,69.79,1023.49,69.7,1023.07,69.28ZM529.69,67A8.78,8.78,0,0,1,527.41,66a2.22,2.22,0,0,0-1.34-.41c-.81,0-.82.08-.05.58.48.31.61.56.29.56-.75,0-2.89-2.3-3.38-3.62s.48-1.39,1.16-.24a8.23,8.23,0,0,0,4,2.47,13.77,13.77,0,0,1,2.6.91c2.46,1,1.66,1.72-1,.81ZM126.24,63.51c-.41-.49-.6-1-.42-1.22.45-.44,2.76.85,2.76,1.55C128.58,64.71,127.06,64.5,126.24,63.51Zm409-2.44c-3-.33-2.79-1.34.23-1.34,1.52,0,2.66-.34,3.09-.92.6-.83.81-.8,2.1.24.79.64,1.26,1.34,1,1.56C541.14,61.14,537.94,61.37,535.21,61.07Zm476.36-1.15c0-.53-.17-.8-.38-.58s-.76-.15-1.22-.8a1.65,1.65,0,0,0-2-.84c-1,.32-1.1.09-.95-2.28.17-2.66,1-4.53,1-2.24,0,.73.84,1.88,2,2.79s1.9,1.77,1.74,2,.24.65.88.85c1.52.48,1.53,2,0,2-.7,0-1.16-.39-1.16-1Zm-890-2c0-.33.79-1.06,1.75-1.6s1.75-1.43,1.75-2c0-.83.52-.92,3.65-.66,6.07.53,6.5,2.42.63,2.79a7.42,7.42,0,0,0-3.63,1.1c-1.15,1.05-4.15,1.29-4.15.33Zm424.36-.74c-1.17-.68-1.24-.86-.43-1.17A10.23,10.23,0,0,1,549,56a11,11,0,0,0,4.24-.23c1.45-.51,1.69-.44,1.76.51.05.67-.3,1.1-.9,1.1s-2.3.14-3.9.31a7.55,7.55,0,0,1-4.3-.5ZM871.6,53.56c-1-.5-1.14-.8-.58-1.06s-.07-.27-1.12-.17c-1.23.13-1.89-.06-1.89-.54s-.46-.83-1-.95.21-.22,1.72-.23,2.61.19,2.45.46.11.32.61.13.91-.61.91-.93.63-.43,1.46-.22,1.45.12,1.45-.35.16-.55.71,0c.9.9,2.42.92,1.86,0-.28-.46,0-.58.75-.37a1.59,1.59,0,0,0,1.83-.76c.87-1.38.42-1.6-3.57-1.76-2.38-.1-3.33-.37-3.33-.95,0-.74,3.26-2.32,4.21-2a17.59,17.59,0,0,0,3.51-.71c1.69-.46,2.62-.85,2.06-.87s-1-.26-1-.53,1.72-.55,3.83-.62c5.37-.17,7.69-.52,9.81-1.48a22.16,22.16,0,0,1,5.36-1.2c4.41-.48,5.66-1.15,4.2-2.27-.57-.43-1-.88-1-1a12.14,12.14,0,0,1,3.35.06c4.54.41,10.73-.28,13-1.44s6-1.64,5.49-.78c-.32.52,2.41.35,6.78-.43,1.14-.2,1,0-.73.92-1.2.65-2.19,1.43-2.19,1.73s1.33.73,2.94.94c3.25.43,3.27.8.08,1.74-1.18.35-2.07.94-2,1.31s-.92.69-3.06.69a18.56,18.56,0,0,0-5.4.83A30.07,30.07,0,0,1,917.91,42c-1.61.24-3.18.49-3.51.56l-4.08.84a17.16,17.16,0,0,0-4.13,1.23,7.17,7.17,0,0,1-2.63.78c-9.23,1.3-11.48,1.7-12.45,2.21s-1.07.62-.05,1.19c1.54.86,10.19.62,14.14-.39,1.85-.47,6.26-1.42,9.79-2.11s7.71-1.61,9.3-2.07,3-.83,3.18-.83a28.44,28.44,0,0,1-3.7,2.63c-2.2,1.44-4.55,2.62-5.22,2.63-1.69,0-8.21,2.1-9.83,3.14A14.29,14.29,0,0,1,903.9,53c-1.93.19-4.95.49-6.71.68-6.63.69-24.18.62-25.59-.11ZM976,51V50c0-.24.33-.43.73-.43a1.65,1.65,0,0,0,1.17-.59c.29-.38.59-.37.88,0a8.46,8.46,0,0,0,1.75,1.51c1.26.86,1.2.9-1.61,1-1.66.06-2.92-.16-2.92-.49ZM659.61,47.76c-.75-.75-3.26-1.33-6.93-1.59a5.21,5.21,0,0,1-3.27-2.93c-.06-.41.56-.75,1.42-.78a100.54,100.54,0,0,0,11.46-1.66c4.35-.81,21.58-.8,26.1,0,1.37.25,3.41.53,4.54.61,3.77.29,5.84.9,5.42,1.6-.22.37,0,.33.54-.1.77-.62,1.07-.62,1.68,0a3.15,3.15,0,0,0,2.53.54l1.79-.25-1.34,1.19c-1.33,1.18-4.9,1.43-6.47.46a1.38,1.38,0,0,0-1.32,0,27.16,27.16,0,0,1-6,.5,27.72,27.72,0,0,0-6,.51c-1.14.7-11.26,1-11.26.33,0-.33-.44-.16-1,.37a2.7,2.7,0,0,1-2.53.66,5.73,5.73,0,0,0-3.18.53c-2.11,1.09-5.09,1.07-6.21,0Zm210.29-.67c-1-.39-.94-2.53,0-2.53.41,0,.81.65.87,1.45a3.41,3.41,0,0,1,0,1.42l-.87-.34Zm-157.18-.44a14.6,14.6,0,0,0-3.16-.54,23.84,23.84,0,0,1-4.32-.84c-1.35-.49-1.31-.55,1-1.49,2.61-1,5-1.18,9.86-.6,2.9.35,4.34,1.38,1.93,1.38a2,2,0,0,0-1.5.58c-.2.32,0,.59.41.59s.52.17-.12.58C716,46.87,713.19,47.1,712.72,46.65Zm122.61-.95c0-1,.16-1.1,1.24-.52s1.09.77.44,1.18c-1.26.8-1.68.63-1.68-.66Zm9.33.61c0-.32.41-.59.91-.59s.75.27.55.59a1.24,1.24,0,0,1-.91.58A.57.57,0,0,1,844.66,46.31Zm5.11.18c-1.48-.39-1.25-1.17.44-1.49.8-.16,1.46-.08,1.46.18s2.21.41,4.91.35c3.6-.07,4.76.08,4.36.56-.54.65-9.09,1-11.17.4Zm16.34,0c-1.49-.22-2.36-1.91-1-1.91.34,0,.46.26.26.58s0,.58.52.58a1.58,1.58,0,0,0,1.23-.58,1.31,1.31,0,0,1,1-.58c.43,0,.42.24,0,.78s-.48.95-.27,1.17.27.34.14.29-1-.19-1.85-.33Zm-260.3-.82c.4-.4.87-.58,1.05-.4s-.14.51-.72.73c-.83.31-.9.25-.33-.33Zm216.09.07c-.52-.34-.59-.57-.18-.57a1.34,1.34,0,0,1,1.06.57C823.23,46.45,823,46.45,821.9,45.72Zm3.07.13c-2.22-.35-1.45-1.15.85-.89a10.69,10.69,0,0,1,2.36.42C828.53,45.73,826.3,46.05,825,45.85Zm4.23-.13c-.2-.32-.08-.58.26-.58a.59.59,0,0,1,.61.58c0,.32-.11.59-.25.59s-.42-.27-.62-.59Zm1.46.14c0-.33.39-.75.87-.93s.88-.25.88-.14a3.19,3.19,0,0,1-.88.93C831,46.14,830.66,46.2,830.66,45.86Zm145.9-.06c0-.32-1.18-.77-2.63-1s-2.62-.58-2.62-.8c0-.55,5.23-1.55,6.89-1.32,1.88.27,1.61,3.23-.33,3.5-.72.1-1.31-.08-1.31-.4Zm-368-.65c-.2-.33,0-.43.55-.23,1,.38,1.2.8.36.8a1.25,1.25,0,0,1-.91-.57ZM818.24,45c-.17-.44.16-.79.76-.84a1.43,1.43,0,0,1,1.38.76c.21.54-.06.83-.77.83A1.53,1.53,0,0,1,818.24,45Zm-22.91-1a1.52,1.52,0,0,0-1.35-.5c-1.39.15-4.73-.7-5.1-1.29s.19-.68,4.71-.54c3.49.11,4.54.69,4,2.16a1.27,1.27,0,0,1-2.24.17Zm7.55-.19c-.57-1.49-.19-1.56,3.18-.57s3.83,1.57.55.83c-1.34-.3-2.35-.25-2.73.13s-.73.31-1-.39Zm-155.47,0c0-.14.26-.41.58-.61s.58-.09.58.25A.6.6,0,0,1,648,44C647.67,44,647.41,43.86,647.41,43.71Zm151.44-.91c-.2-.32-.08-.58.26-.58a.6.6,0,0,1,.62.58c0,.33-.12.59-.26.59s-.42-.26-.62-.59Zm28.31-.6c0-.38-.4-.54-.88-.35s-.87,0-.87-.56c0-1,2.84-1,3.69.05.31.38.58.33.78-.14s.53-.59.83-.41c.77.48.65,1.24-.2,1.24a9.57,9.57,0,0,0-2,.43c-.86.28-1.31.19-1.31-.26Zm-705.87-.57c-.2-.32,0-.75.57-.94,1.12-.43,1.74,0,1.2.91a1,1,0,0,1-1.77,0Zm699,.11c-1.77-.25-1.35-1.38.7-1.93,1.23-.33,1.54-.25,1.31.35s.14.73,1.12.63,1.42.14,1.42.61c0,.74-1.12.83-4.55.34ZM242.1,35.81c-.2-.33,0-.76.54-1a1.67,1.67,0,0,0,.91-1.49c0-.63.27-1,.6-.77a.71.71,0,0,1,.2,1c-.21.34.19,1.06.9,1.59,1.27,1,1.27,1-.75,1.1C243.39,36.35,242.31,36.14,242.1,35.81ZM994.38,35c-1-.74-1-.81.48-1.18a4.51,4.51,0,0,1,2.85.3c1.26.67,1.26.7.14,1.14C996.15,35.93,995.58,35.89,994.38,35ZM235.06,33.42a8.48,8.48,0,0,0-2.7-1.68l-2.29-1,2.22-.37A34.05,34.05,0,0,1,236.6,30a16.84,16.84,0,0,0,5.71-1.81c2.45-1.22,3.85-1.63,4.33-1.25,1.55,1.22,10.6,1.7,17.92.94,4.67-.48,11.68-.58,12.35-.16s-2,.93-8.55,1.43c-6.28.48-7,.69-6,1.84.66.8.41.86-2.16.52a14.33,14.33,0,0,0-4.9.21c-1.27.37-2.24.38-2.67,0s-2.62-.57-5-.58-6-.07-8-.13c-4-.11-4.79.23-3.72,1.52.44.52.48,1,.12,1.19a.72.72,0,0,1-1-.3Zm653.19-1.78c-.27-1-.67-1.18-2.14-1-1,.15-1.92.1-2-.11s-1.73-.21-3.56,0c-2.77.31-18.64.28-27.38,0-1.29-.05-3.52-.08-5-.07-5.16,0-6.39-.05-6.14-.46a3.84,3.84,0,0,1,2.12-.47,3.73,3.73,0,0,0,2.21-.57c.42-.62,5.31-.62,4.92,0s1.88.2,2.81-.54c1.2-.95,3.8-1.28,17.61-2.22,7-.48,15-1.3,17.8-1.82s5.59-1,6.23-1.1a107,107,0,0,0,19.5-4.18,1.17,1.17,0,0,1,1.27.46c.69,1.12-1.85,3.39-3.8,3.4a20.68,20.68,0,0,0-5.84,2,28,28,0,0,1-7.05,2.35,39.79,39.79,0,0,0-7.43,1.3c-.76.43,1,1.81,2,1.61a1.41,1.41,0,0,1,1.34.34c.19.3.88.31,1.66,0,1.38-.52,3.3.12,2.27.76-.69.42-4,1-8.11,1.29-2.66.22-3,.11-3.31-1Zm1.67.13c-.18-.3,0-.67.41-.83s.33-.32-.29-.34a.9.9,0,0,0-1,.82c0,.49.28.88.62.88S890.11,32.06,889.92,31.77Zm13.17-1.27c-.77-.31-1.24-.72-1-.92.63-.63,3.31-.7,3.31-.08,0,.38.31.35.82-.07s.94-.5,1.21-.07a.74.74,0,0,0,1,.23c.39-.24.46-.11.19.33a1.06,1.06,0,0,1-1.24.4,1,1,0,0,0-1.14.25c-.42.69-1.3.67-3.13-.07ZM476.23,29.05a.88.88,0,0,0,.41-1.09c-.19-.48.31-.88,1.34-1.08a6,6,0,0,1,1.78-.18c.42.41-1.51,2-2.77,2.33-.8.19-1.14.2-.76,0Zm350.08-.2c-.18-.29.2-.39.85-.22,1.36.36,1.53.75.32.75A1.51,1.51,0,0,1,826.31,28.85Zm5.79-7.56c-.77-.76-.1-1.68,1.22-1.68,1.09,0,1.4.23,1.15.88s-.14.73.41.29c.89-.71,3.23-1.18,9.78-2,5.87-.71,4.51-.65,13.14-.6,3.85,0,7.45,0,8,0a1.77,1.77,0,0,0,1.35-.56c.42-.69,6.12-.7,7.2,0a3.84,3.84,0,0,0,2.63,0,30.61,30.61,0,0,1,8.23-1.13c1.61-.06,5.94-.49,9.63-1,8.49-1.09,10.52-1.22,10.18-.67a11,11,0,0,1-3.33,1.33c-3,.88-5.15,1.21-11.81,1.86-1.92.19-4.55.57-5.83.84a49.9,49.9,0,0,1-7.34.53A57.45,57.45,0,0,0,869,20a7.56,7.56,0,0,1-3.35.09,6.41,6.41,0,0,0-3.29.46c-1.81.59-3,.69-3.91.31a14.61,14.61,0,0,0-4.78-.31c-1.93.13-6.39.34-9.92.46s-7.55.31-8.92.41a8,8,0,0,1-2.77-.09ZM369.61,4.87c0-.32.12-.58.26-.58s.42.26.62.58.08.58-.26.58A.6.6,0,0,1,369.61,4.87Z" transform="translate(-3.33 -3.89)"/></svg>